<svg width="99px" height="99px" viewBox="0 0 99 99" version="1.1" xmlns="http://www.w3.org/2000/svg" xmlns:xlink="http://www.w3.org/1999/xlink">
        <!-- Generator: Sketch 50 (54983) - http://www.bohemiancoding.com/sketch -->
        <desc>Created with Sketch.</desc>
        <defs></defs>
        <g id="Hi-Fi-Prototypes" stroke="none" stroke-width="1" fill="none" fill-rule="evenodd">
            <g id="Map-Management" transform="translate(-327.000000, -333.000000)" fill="#FEFEFE">
                <path d="M376.502825,333 C349.164474,333 327,355.161797 327,382.5 C327,409.838203 349.163062,432 376.502825,432 C403.836938,432 426,409.838203 426,382.5 C426,355.161797 403.836938,333 376.502825,333 Z M396.890932,385.109447 L378.11207,385.109447 L378.11207,403.890553 C378.11207,405.055137 377.16732,406 376.002876,406 C374.838431,406 373.893681,405.055137 373.893681,403.890553 L373.893681,385.109447 L355.109195,385.109447 C353.94475,385.109447 353,384.164583 353,383 C353,381.835417 353.94475,380.890553 355.109195,380.890553 L373.888056,380.890553 L373.893554,362.109447 C373.893554,360.944863 374.838305,360 376.002749,360 C377.167193,360 378.111944,360.944863 378.111944,362.109447 L378.111944,380.890553 L396.890805,380.890553 C398.05525,380.890553 399,381.835417 399,383 C399,384.164583 398.05525,385.109447 396.890805,385.109447 L396.890932,385.109447 Z" id="Page-1"></path>
            </g>
        </g>
    </svg>